{"glyphs":{":":{"x_min":0,"x_max":337,"ha":337,"o":"m 144 62 l 193 62 l 193 0 l 144 0 z m 144 480 l 193 480 l 193 418 l 144 418 z"},"$":{"x_min":0,"x_max":636,"ha":636,"o":"m 333 -147 l 289 -147 l 289 0 q 254 0 192 21 q 131 42 83 63 l 83 105 q 134 83 192 63 q 259 40 289 41 l 289 318 q 187 335 140 374 q 94 413 94 480 q 94 554 144 596 q 195 639 289 645 l 289 760 l 333 760 l 333 646 q 371 646 430 635 q 471 627 509 615 l 509 573 q 467 588 427 597 q 378 607 333 607 l 333 347 q 451 331 503 290 q 556 248 556 176 q 556 98 500 53 q 444 8 333 0 z m 289 358 l 289 605 q 216 597 178 565 q 139 533 139 480 q 139 429 175 399 q 210 371 289 358 z m 333 309 l 333 41 q 424 51 467 85 q 510 120 510 175 q 510 229 469 262 q 430 294 333 309 z"},"?":{"x_min":0,"x_max":531,"ha":531,"o":"m 215 62 l 265 62 l 265 0 l 215 0 z m 265 196 l 216 196 l 216 271 q 216 314 232 352 q 245 381 290 426 l 334 469 q 363 499 374 518 q 387 541 387 565 q 387 626 354 665 q 322 703 267 703 q 206 703 174 688 q 123 666 86 624 l 76 677 q 125 718 163 729 q 207 742 262 742 q 330 742 385 695 q 439 647 439 570 q 439 533 421 499 q 405 468 360 424 l 317 382 q 295 361 284 346 q 275 333 271 321 q 268 311 267 296 q 267 281 265 256 z"},"<":{"x_min":0,"x_max":838,"ha":838,"o":"m 732 514 l 168 312 l 732 114 l 732 64 l 106 292 l 106 333 l 732 560 z"},"'":{"x_min":0,"x_max":275,"ha":275,"o":"m 160 729 l 160 458 l 113 458 l 113 729 z"},"=":{"x_min":0,"x_max":838,"ha":838,"o":"m 106 412 l 732 412 l 732 372 l 106 372 z m 106 255 l 732 255 l 732 215 l 106 215 z"},"a":{"x_min":0,"x_max":613,"ha":613,"o":"m 332 309 q 224 309 176 270 q 128 231 128 157 q 128 85 167 55 q 207 24 261 24 q 364 24 409 111 q 454 198 454 275 l 454 309 z m 500 312 l 500 0 l 455 0 l 455 148 q 417 40 355 10 q 306 -14 257 -14 q 176 -14 129 29 q 82 73 82 158 q 82 243 143 294 q 204 345 343 345 l 454 345 l 454 354 q 454 427 413 474 q 372 521 277 521 q 230 521 181 503 q 150 492 100 458 l 100 506 q 144 533 181 544 q 236 560 286 560 q 383 560 445 501 q 500 451 500 312 z"},"L":{"x_min":0,"x_max":557,"ha":557,"o":"m 122 729 l 171 729 l 171 40 l 526 40 l 526 0 l 122 0 z"},"3":{"x_min":0,"x_max":636,"ha":636,"o":"m 406 393 q 464 379 498 330 q 531 282 531 212 q 531 104 469 45 q 407 -14 271 -14 q 225 -14 177 0 q 128 15 76 45 l 76 98 q 117 62 166 44 q 215 26 266 26 q 371 26 427 74 q 482 121 482 212 q 482 286 431 328 q 379 370 287 370 l 202 370 l 202 411 l 291 411 q 375 411 420 444 q 465 479 465 543 q 465 619 419 660 q 373 701 287 701 q 247 701 200 687 q 154 673 98 643 l 98 694 q 154 718 203 729 q 252 741 296 742 q 408 742 461 691 q 515 640 515 553 q 515 495 486 451 q 459 409 406 393 z"},";":{"x_min":0,"x_max":337,"ha":337,"o":"m 144 480 l 193 480 l 193 418 l 144 418 z m 144 63 l 193 63 l 193 40 l 155 -116 l 125 -116 l 144 40 z"},"J":{"x_min":0,"x_max":295,"ha":295,"o":"m 122 729 l 171 729 l 171 51 q 171 -69 139 -124 q 106 -178 35 -178 l 5 -178 l 5 -137 l 29 -137 q 80 -137 101 -96 q 122 -55 122 51 z"},"V":{"x_min":0,"x_max":684,"ha":684,"o":"m 309 0 l 30 729 l 86 729 l 342 49 l 600 729 l 651 729 l 373 0 z"},"\"":{"x_min":0,"x_max":460,"ha":460,"o":"m 160 729 l 160 458 l 113 458 l 113 729 z m 345 729 l 345 458 l 298 458 l 298 729 z"},"7":{"x_min":0,"x_max":636,"ha":636,"o":"m 82 729 l 525 729 l 525 687 l 261 0 l 209 0 l 474 689 l 82 689 z"},"S":{"x_min":0,"x_max":635,"ha":635,"o":"m 529 692 l 529 646 q 481 670 423 689 q 385 701 327 702 q 241 704 188 664 q 139 628 139 540 q 139 486 176 454 q 215 420 295 400 l 353 385 q 431 364 474 336 q 553 282 553 200 q 553 81 483 35 q 407 -14 327 -14 q 244 -14 178 9 q 136 25 91 55 l 91 103 q 159 62 187 51 q 248 26 300 26 q 389 26 448 65 q 504 103 504 196 q 504 250 470 282 q 420 327 342 346 l 283 360 q 213 377 164 408 q 89 455 89 536 q 89 637 150 691 q 207 742 322 742 q 390 742 426 730 q 519 700 529 692 z"},"}":{"x_min":0,"x_max":636,"ha":636,"o":"m 169 -121 l 192 -121 q 238 -121 252 -98 q 266 -75 266 -1 l 266 140 q 266 216 281 251 q 295 286 332 299 q 296 311 281 346 q 266 380 266 457 l 266 598 q 266 672 252 695 q 238 718 192 718 l 169 718 l 169 760 l 190 760 q 261 760 288 724 q 316 688 316 580 l 316 456 q 316 361 350 338 q 375 320 396 320 l 431 320 l 431 277 l 396 277 q 366 277 350 260 q 316 224 316 141 l 316 17 q 316 -91 288 -127 q 261 -163 190 -163 l 169 -163 z"},"Z":{"x_min":0,"x_max":685,"ha":685,"o":"m 56 729 l 629 729 l 629 689 l 104 40 l 640 40 l 640 0 l 45 0 l 45 40 l 569 688 l 56 688 z"},"x":{"x_min":0,"x_max":592,"ha":592,"o":"m 521 547 l 324 284 l 536 0 l 482 0 l 297 249 l 109 0 l 56 0 l 270 286 l 75 547 l 128 547 l 297 320 l 468 547 z"},")":{"x_min":0,"x_max":390,"ha":390,"o":"m 109 760 l 153 760 q 221 645 254 533 q 287 423 287 314 q 287 205 253 94 q 220 -17 153 -132 l 109 -132 q 174 -20 207 91 q 238 201 238 314 q 238 427 207 537 q 175 647 109 760 z"},"&":{"x_min":0,"x_max":780,"ha":780,"o":"m 252 418 q 200 373 163 311 q 136 265 136 202 q 136 116 183 72 q 235 23 334 26 q 389 26 429 51 q 497 92 527 134 z m 287 445 l 556 170 q 573 190 614 261 q 644 311 646 391 l 695 391 q 688 317 671 271 q 647 205 589 137 l 718 0 l 656 0 l 559 102 q 503 42 455 18 q 392 -14 330 -14 q 199 -14 142 54 q 86 121 86 199 q 86 275 123 338 q 149 381 221 451 q 203 471 184 504 q 167 535 167 567 q 167 654 211 697 q 258 742 344 742 q 384 742 423 727 q 496 696 507 688 l 507 639 q 461 667 421 685 q 379 702 349 702 q 299 702 265 682 q 216 655 216 568 q 216 543 230 518 q 251 481 287 445 z"},"_":{"x_min":0,"x_max":500,"ha":500,"o":"m 510 -198 l 510 -236 l -10 -236 l -10 -198 z"},"v":{"x_min":0,"x_max":592,"ha":592,"o":"m 63 547 l 110 547 l 296 49 l 481 547 l 528 547 l 325 0 l 267 0 z"},"O":{"x_min":0,"x_max":787,"ha":787,"o":"m 204 613 q 133 521 133 364 q 133 207 204 116 q 274 24 394 24 q 514 24 584 116 q 654 207 654 364 q 654 521 584 613 q 514 704 394 704 q 274 704 204 613 z m 394 742 q 536 742 621 640 q 706 537 706 364 q 706 191 621 89 q 536 -14 394 -14 q 252 -14 167 88 q 82 191 82 364 q 82 537 167 640 q 252 742 394 742 z"},"(":{"x_min":0,"x_max":390,"ha":390,"o":"m 287 760 q 222 647 190 537 q 158 427 158 314 q 158 201 190 91 q 222 -20 287 -132 l 244 -132 q 176 -17 143 94 q 109 205 109 314 q 109 423 143 533 q 176 644 244 760 z"},"C":{"x_min":0,"x_max":698,"ha":698,"o":"m 644 668 l 644 612 q 594 658 538 680 q 481 702 418 702 q 280 702 208 615 q 134 528 134 364 q 134 199 208 112 q 280 24 418 24 q 481 24 538 47 q 594 70 644 115 l 644 56 q 592 21 534 3 q 477 -14 412 -14 q 259 -14 171 87 q 83 188 83 364 q 83 540 171 641 q 259 742 412 742 q 478 742 535 724 q 593 706 644 668 z"},"W":{"x_min":0,"x_max":989,"ha":989,"o":"m 69 729 l 120 729 l 286 58 l 452 729 l 514 729 l 679 62 l 845 729 l 895 729 l 714 0 l 644 0 l 483 649 l 322 0 l 250 0 z"},"A":{"x_min":0,"x_max":684,"ha":684,"o":"m 339 680 l 183 270 l 493 270 z m 308 729 l 372 729 l 651 0 l 595 0 l 508 229 l 168 229 l 82 0 l 30 0 z"},"f":{"x_min":0,"x_max":352,"ha":352,"o":"m 349 760 l 349 722 l 285 722 q 235 722 209 696 q 177 664 177 595 l 177 547 l 324 547 l 324 509 l 177 509 l 177 0 l 131 0 l 131 509 l 45 509 l 45 547 l 131 547 l 131 585 q 131 676 173 718 q 214 760 286 760 z"},"Q":{"x_min":0,"x_max":787,"ha":787,"o":"m 204 611 q 133 521 133 363 q 133 207 204 116 q 274 24 394 24 q 514 24 584 116 q 654 207 654 363 q 654 521 584 611 q 514 703 394 703 q 274 703 204 611 z m 509 5 l 633 -129 l 572 -129 l 461 -9 q 440 -13 427 -14 q 411 -14 394 -14 q 252 -14 167 89 q 82 191 82 364 q 82 537 167 640 q 252 742 394 742 q 536 742 621 640 q 706 537 706 364 q 706 240 659 146 q 607 45 509 5 z"},"w":{"x_min":0,"x_max":818,"ha":818,"o":"m 63 547 l 110 547 l 238 60 l 366 547 l 423 547 l 551 57 l 679 547 l 726 547 l 583 0 l 520 0 l 394 479 l 269 0 l 207 0 z"},"-":{"x_min":0,"x_max":361,"ha":361,"o":"m 49 294 l 312 294 l 312 254 l 49 254 z"},"E":{"x_min":0,"x_max":632,"ha":632,"o":"m 122 729 l 534 729 l 534 688 l 171 688 l 171 409 l 519 409 l 519 369 l 171 369 l 171 40 l 542 40 l 542 0 l 122 0 z"},"s":{"x_min":0,"x_max":521,"ha":521,"o":"m 423 531 l 423 481 q 375 508 364 511 q 330 519 279 521 q 202 521 158 490 q 124 464 124 403 q 124 361 156 338 q 189 312 252 299 l 283 292 q 360 275 400 244 q 447 208 449 151 q 449 73 403 29 q 354 -14 246 -14 q 186 -14 154 -6 q 117 5 75 20 l 75 76 q 135 42 152 37 q 201 24 248 24 q 327 24 365 57 q 403 90 403 144 q 403 189 377 209 q 341 239 261 257 l 229 265 q 161 281 125 310 q 79 347 79 399 q 79 485 134 522 q 188 560 268 560 q 336 560 362 553 q 393 544 423 531 z"},">":{"x_min":0,"x_max":838,"ha":838,"o":"m 106 514 l 106 560 l 732 333 l 732 292 l 106 64 l 106 114 l 669 312 z"},"l":{"x_min":0,"x_max":278,"ha":278,"o":"m 113 760 l 158 760 l 158 0 l 113 0 z"},"8":{"x_min":0,"x_max":636,"ha":636,"o":"m 318 363 q 236 363 189 318 q 143 273 143 194 q 143 115 189 70 q 236 24 318 24 q 399 24 446 70 q 494 115 494 194 q 494 273 447 318 q 400 363 318 363 z m 219 388 q 172 406 142 447 q 110 491 110 553 q 110 641 166 691 q 221 742 318 742 q 415 742 470 691 q 526 641 526 553 q 526 488 494 447 q 461 405 417 388 q 472 370 506 323 q 542 275 542 205 q 542 99 484 42 q 426 -14 318 -14 q 210 -14 152 42 q 94 99 94 205 q 94 275 130 323 q 169 372 219 388 z m 318 402 q 392 402 435 442 q 477 481 477 552 q 477 623 435 663 q 392 702 318 702 q 243 702 201 663 q 160 623 160 552 q 160 481 201 442 q 243 402 318 402 z"},"\\":{"x_min":0,"x_max":337,"ha":337,"o":"m 67 729 l 321 -93 l 270 -93 l 16 729 z"},"e":{"x_min":0,"x_max":615,"ha":615,"o":"m 540 296 l 540 268 l 125 268 q 125 136 176 83 q 232 24 344 24 q 374 24 422 37 q 471 50 519 75 l 519 28 q 470 7 419 -3 q 369 -14 339 -14 q 212 -14 148 54 q 79 127 79 268 q 79 414 143 485 q 208 560 323 560 q 431 560 485 489 q 540 415 540 296 z m 494 306 q 494 421 442 474 q 399 521 324 521 q 243 521 188 472 q 137 426 126 306 z"},"b":{"x_min":0,"x_max":635,"ha":635,"o":"m 451 463 q 395 521 333 521 q 271 521 215 463 q 159 406 159 273 q 159 140 215 83 q 271 25 333 25 q 395 25 451 83 q 508 140 508 273 q 508 406 451 463 z m 158 422 q 189 493 225 520 q 280 560 329 560 q 426 560 491 481 q 555 402 555 273 q 555 144 491 65 q 426 -14 329 -14 q 280 -14 225 26 q 189 53 158 124 l 158 0 l 114 0 l 114 760 l 158 760 z"},"%":{"x_min":0,"x_max":950,"ha":950,"o":"m 728 344 q 679 344 652 302 q 625 260 625 184 q 625 110 652 67 q 679 25 728 25 q 775 25 802 67 q 830 110 830 184 q 830 259 802 302 q 775 344 728 344 z m 727 383 q 795 383 835 329 q 875 275 875 184 q 875 93 835 39 q 794 -14 727 -14 q 657 -14 617 39 q 577 93 577 184 q 577 276 618 329 q 658 383 727 383 z m 224 704 q 176 704 148 661 q 121 619 121 543 q 121 469 148 427 q 176 384 224 384 q 271 384 299 427 q 326 469 326 543 q 326 618 299 661 q 271 704 224 704 z m 676 742 l 727 742 l 272 -14 l 221 -14 z m 223 742 q 292 742 332 688 q 372 635 372 543 q 372 452 332 398 q 291 345 223 345 q 154 345 114 398 q 74 452 74 543 q 74 635 114 688 q 154 742 223 742 z"},"m":{"x_min":0,"x_max":974,"ha":974,"o":"m 507 428 q 532 494 587 527 q 639 560 710 560 q 781 560 824 510 q 868 460 868 330 l 868 0 l 823 0 l 823 327 q 823 440 792 480 q 761 521 709 521 q 634 521 576 474 q 513 424 513 309 l 513 0 l 468 0 l 468 327 q 468 437 438 479 q 408 521 354 521 q 279 521 221 474 q 158 423 158 309 l 158 0 l 113 0 l 113 547 l 158 547 l 158 444 q 182 498 232 529 q 283 560 357 560 q 405 560 449 528 q 483 503 507 428 z"},"#":{"x_min":0,"x_max":838,"ha":838,"o":"m 531 458 l 359 458 l 308 258 l 481 258 z m 423 718 l 367 497 l 540 497 l 596 718 l 645 718 l 589 497 l 761 497 l 761 458 l 580 458 l 530 258 l 705 258 l 705 221 l 521 221 l 466 0 l 417 0 l 472 221 l 299 221 l 244 0 l 195 0 l 250 221 l 77 221 l 77 258 l 260 258 l 310 458 l 133 458 l 133 497 l 319 497 l 374 718 z"},",":{"x_min":0,"x_max":318,"ha":318,"o":"m 134 62 l 183 62 l 183 40 l 145 -116 l 114 -116 l 134 40 z"},"n":{"x_min":0,"x_max":634,"ha":634,"o":"m 526 330 l 526 0 l 481 0 l 481 327 q 481 434 447 477 q 413 521 347 521 q 269 521 214 474 q 158 426 158 309 l 158 0 l 113 0 l 113 547 l 158 547 l 158 444 q 182 494 221 521 q 279 560 349 560 q 430 560 478 505 q 526 450 526 330 z"},"h":{"x_min":0,"x_max":634,"ha":634,"o":"m 526 330 l 526 0 l 481 0 l 481 327 q 481 433 446 477 q 410 521 338 521 q 255 521 207 472 q 158 423 158 309 l 158 0 l 113 0 l 113 760 l 158 760 l 158 446 q 174 488 214 521 q 262 560 349 560 q 430 560 478 502 q 526 443 526 330 z"},"z":{"x_min":0,"x_max":525,"ha":525,"o":"m 55 547 l 482 547 l 482 495 l 86 38 l 482 38 l 482 0 l 43 0 l 43 50 l 438 508 l 55 508 z"},"B":{"x_min":0,"x_max":655,"ha":655,"o":"m 172 363 l 172 40 l 355 40 q 448 40 493 80 q 538 119 538 202 q 538 285 493 324 q 448 363 355 363 z m 172 689 l 172 403 l 343 403 q 427 403 468 438 q 509 474 509 547 q 509 619 468 653 q 427 689 343 689 z m 123 729 l 350 729 q 450 729 504 682 q 559 635 559 549 q 559 478 531 442 q 500 403 457 389 q 520 373 551 328 q 587 278 587 204 q 587 106 528 53 q 469 0 360 0 l 123 0 z"},"K":{"x_min":0,"x_max":656,"ha":656,"o":"m 173 729 l 221 729 l 221 415 l 555 729 l 620 729 l 258 388 l 644 0 l 580 0 l 221 360 l 221 0 l 173 0 z"},"R":{"x_min":0,"x_max":695,"ha":695,"o":"m 423 342 q 454 331 482 296 q 502 271 539 199 l 641 0 l 589 0 l 485 200 q 444 279 407 304 q 369 330 304 330 l 172 330 l 172 0 l 123 0 l 123 729 l 321 729 q 433 729 488 677 q 543 625 543 519 q 543 451 514 405 q 487 359 423 342 z m 172 689 l 172 370 l 333 370 q 411 370 451 411 q 491 451 491 530 q 491 609 451 649 q 411 689 333 689 z"},"T":{"x_min":0,"x_max":611,"ha":611,"o":"m 22 729 l 589 729 l 589 689 l 330 689 l 330 0 l 281 0 l 281 689 l 22 689 z"},"P":{"x_min":0,"x_max":603,"ha":603,"o":"m 171 688 l 171 354 l 321 354 q 402 354 447 397 q 492 440 492 521 q 492 601 447 645 q 402 688 321 688 z m 122 729 l 321 729 q 430 729 486 676 q 542 624 542 521 q 542 419 486 366 q 430 313 321 313 l 171 313 l 171 0 l 122 0 z"},"|":{"x_min":0,"x_max":337,"ha":337,"o":"m 193 764 l 193 -236 l 146 -236 l 146 764 z"},"t":{"x_min":0,"x_max":392,"ha":392,"o":"m 161 702 l 161 547 l 346 547 l 346 509 l 161 509 l 161 180 q 161 118 177 93 q 210 38 273 38 l 346 38 l 346 0 l 276 0 q 209 0 162 39 q 115 78 115 180 l 115 509 l 50 509 l 50 547 l 115 547 l 115 702 z"},"M":{"x_min":0,"x_max":863,"ha":863,"o":"m 161 729 l 229 729 l 431 188 l 635 729 l 702 729 l 702 0 l 652 0 l 652 640 l 465 140 l 397 140 l 210 640 l 210 0 l 161 0 z"},"g":{"x_min":0,"x_max":600,"ha":600,"o":"m 477 280 q 477 394 430 456 q 384 519 301 519 q 218 519 172 456 q 126 394 126 280 q 126 167 172 104 q 218 41 301 41 q 384 41 430 104 q 477 167 477 280 z m 521 68 q 521 -103 457 -155 q 392 -208 292 -208 q 245 -208 203 -201 q 161 -194 121 -179 l 121 -128 q 161 -149 199 -160 q 238 -170 278 -170 q 359 -170 418 -135 q 477 -101 477 52 l 477 137 q 457 81 421 49 q 368 0 301 0 q 197 0 139 73 q 81 147 81 280 q 81 413 139 487 q 197 560 301 560 q 367 560 415 518 q 452 485 477 431 l 477 547 l 521 547 z"},"j":{"x_min":0,"x_max":278,"ha":278,"o":"m 117 547 l 162 547 l 162 -10 q 162 -121 128 -165 q 94 -208 16 -208 l -18 -208 l -18 -170 l 6 -170 q 61 -170 89 -146 q 117 -121 117 -10 z m 117 760 l 162 760 l 162 698 l 117 698 z"},"i":{"x_min":0,"x_max":278,"ha":278,"o":"m 112 547 l 157 547 l 157 0 l 112 0 z m 112 760 l 157 760 l 157 698 l 112 698 z"},"y":{"x_min":0,"x_max":592,"ha":592,"o":"m 298 -51 q 269 -124 235 -151 q 189 -189 146 -189 l 79 -189 l 79 -151 l 136 -151 q 172 -151 199 -128 q 233 -98 256 -41 l 272 0 l 54 547 l 102 547 l 296 60 l 491 547 l 538 547 z"},"@":{"x_min":0,"x_max":1000,"ha":1000,"o":"m 377 262 q 377 177 414 129 q 450 81 514 81 q 577 81 614 129 q 650 178 650 262 q 650 345 613 394 q 576 443 513 443 q 451 443 414 395 q 377 346 377 262 z m 650 116 q 624 79 588 61 q 554 43 507 43 q 430 43 381 104 q 333 165 333 262 q 333 360 381 421 q 430 482 507 482 q 554 482 589 464 q 624 445 650 408 l 650 472 l 695 472 l 695 93 q 788 105 828 161 q 870 219 870 319 q 870 377 852 428 q 836 475 799 523 q 726 615 649 643 q 572 670 515 670 q 460 670 409 652 q 361 635 316 600 q 246 544 206 454 q 166 364 166 259 q 166 181 192 107 q 217 35 267 -23 q 313 -79 375 -108 q 437 -137 507 -137 q 570 -137 631 -114 q 691 -91 742 -47 l 760 -86 q 705 -135 640 -160 q 575 -186 507 -186 q 426 -186 354 -153 q 281 -121 224 -59 q 167 3 138 84 q 108 166 108 259 q 108 349 139 431 q 172 521 224 574 q 298 649 356 674 q 431 708 514 708 q 608 708 685 677 q 760 647 842 544 q 878 500 898 442 q 917 387 917 329 q 917 191 849 120 q 779 48 650 54 z"},".":{"x_min":0,"x_max":318,"ha":318,"o":"m 134 62 l 184 62 l 184 0 l 134 0 z"},"p":{"x_min":0,"x_max":635,"ha":635,"o":"m 158 124 l 158 -208 l 114 -208 l 114 547 l 158 547 l 158 422 q 189 493 225 520 q 280 560 329 560 q 426 560 491 481 q 555 402 555 273 q 555 144 491 65 q 426 -14 329 -14 q 280 -14 225 26 q 189 53 158 124 z m 451 463 q 395 521 333 521 q 271 521 215 463 q 159 406 159 273 q 159 140 215 83 q 271 25 333 25 q 395 25 451 83 q 508 140 508 273 q 508 406 451 463 z"},"X":{"x_min":0,"x_max":685,"ha":685,"o":"m 88 729 l 144 729 l 348 423 l 553 729 l 609 729 l 375 381 l 629 0 l 573 0 l 344 343 l 115 0 l 59 0 l 316 385 z"},"*":{"x_min":0,"x_max":500,"ha":500,"o":"m 460 624 l 271 516 l 461 407 l 450 386 l 260 496 l 260 286 l 237 286 l 237 495 l 48 387 l 37 406 l 227 516 l 38 624 l 49 644 l 237 535 l 237 742 l 260 742 l 260 535 l 449 644 z"},"Y":{"x_min":0,"x_max":611,"ha":611,"o":"m 22 729 l 79 729 l 306 393 l 532 729 l 587 729 l 330 347 l 330 0 l 280 0 l 280 347 z"},"c":{"x_min":0,"x_max":550,"ha":550,"o":"m 488 521 l 488 473 q 447 498 421 506 q 375 521 334 521 q 216 521 165 460 q 113 399 113 273 q 113 146 165 85 q 216 24 334 24 q 373 24 411 35 q 450 45 488 66 l 488 21 q 450 3 410 -5 q 370 -14 330 -14 q 210 -14 139 51 q 68 116 68 273 q 68 430 139 495 q 210 560 330 560 q 369 560 413 549 q 457 538 488 521 z"},"!":{"x_min":0,"x_max":401,"ha":401,"o":"m 177 62 l 224 62 l 224 0 l 177 0 z m 177 729 l 224 729 l 224 409 l 214 235 l 187 235 l 177 409 z"},"/":{"x_min":0,"x_max":337,"ha":337,"o":"m 270 729 l 321 729 l 67 -93 l 16 -93 z"},"[":{"x_min":0,"x_max":390,"ha":390,"o":"m 113 760 l 280 760 l 280 709 l 162 709 l 162 -91 l 280 -91 l 280 -132 l 113 -132 z"},"r":{"x_min":0,"x_max":411,"ha":411,"o":"m 410 508 q 399 514 381 518 q 364 521 339 521 q 256 521 201 459 q 158 409 158 288 l 158 0 l 114 0 l 114 547 l 158 547 l 158 444 q 180 488 220 519 q 274 560 349 560 q 368 560 382 559 q 396 559 410 555 z"},"2":{"x_min":0,"x_max":636,"ha":636,"o":"m 120 40 l 536 40 l 536 0 l 69 0 l 69 51 l 251 240 q 318 309 373 367 q 424 421 441 451 q 458 480 458 529 q 458 614 406 665 q 369 702 285 702 q 236 702 173 674 q 145 661 78 618 l 78 669 q 106 689 161 714 q 223 742 284 742 q 378 742 442 694 q 504 646 504 534 q 504 489 487 449 q 468 402 426 354 q 414 340 348 272 z"},"{":{"x_min":0,"x_max":636,"ha":636,"o":"m 431 -121 l 431 -163 l 411 -163 q 340 -163 313 -127 q 285 -91 285 17 l 285 141 q 285 224 251 260 q 235 277 206 277 l 169 277 l 169 320 l 206 320 q 226 320 251 338 q 285 361 285 456 l 285 580 q 285 688 313 724 q 340 760 411 760 l 431 760 l 431 718 l 409 718 q 363 718 349 695 q 335 672 335 598 l 335 457 q 335 380 320 346 q 305 311 269 299 q 305 286 320 251 q 335 216 335 140 l 335 -1 q 335 -75 349 -98 q 363 -121 409 -121 z"}," ":{"x_min":0,"x_max":318,"ha":318,"o":""},"I":{"x_min":0,"x_max":295,"ha":295,"o":"m 121 729 l 172 729 l 172 0 l 121 0 z"},"H":{"x_min":0,"x_max":752,"ha":752,"o":"m 122 729 l 171 729 l 171 409 l 579 409 l 579 729 l 628 729 l 628 0 l 579 0 l 579 369 l 171 369 l 171 0 l 122 0 z"},"4":{"x_min":0,"x_max":636,"ha":636,"o":"m 402 702 l 100 232 l 402 232 z m 364 729 l 452 729 l 452 232 l 556 232 l 556 193 l 452 193 l 452 0 l 402 0 l 402 193 l 49 193 l 49 244 z"},"~":{"x_min":0,"x_max":838,"ha":838,"o":"m 732 382 l 732 334 q 681 296 637 279 q 593 263 546 263 q 500 263 421 292 q 416 293 413 294 q 410 296 402 298 q 327 329 281 329 q 238 329 196 310 q 154 291 106 250 l 106 298 q 157 336 201 354 q 245 370 292 370 q 344 370 417 341 q 422 339 425 338 q 429 336 436 334 q 511 304 557 304 q 599 304 641 322 q 682 341 732 382 z"},"D":{"x_min":0,"x_max":770,"ha":770,"o":"m 171 688 l 171 40 l 316 40 q 481 40 558 118 q 635 196 635 364 q 635 532 558 610 q 481 688 316 688 z m 122 729 l 301 729 q 500 729 593 641 q 687 553 687 365 q 687 177 593 88 q 499 0 301 0 l 122 0 z"},"^":{"x_min":0,"x_max":838,"ha":838,"o":"m 448 729 l 713 457 l 648 457 l 419 667 l 191 457 l 125 457 l 391 729 z"},"0":{"x_min":0,"x_max":636,"ha":636,"o":"m 315 702 q 226 702 182 615 q 139 528 139 364 q 139 200 182 112 q 226 25 315 25 q 407 25 451 112 q 494 200 494 364 q 494 528 451 615 q 407 702 315 702 z m 315 742 q 420 742 482 656 q 543 570 543 364 q 543 158 482 71 q 420 -15 315 -15 q 212 -15 151 71 q 89 158 89 364 q 89 570 151 656 q 212 742 315 742 z"},"F":{"x_min":0,"x_max":575,"ha":575,"o":"m 122 729 l 492 729 l 492 688 l 171 688 l 171 409 l 460 409 l 460 369 l 171 369 l 171 0 l 122 0 z"},"`":{"x_min":0,"x_max":500,"ha":500,"o":"m 161 800 l 299 617 l 259 617 l 100 800 z"},"k":{"x_min":0,"x_max":579,"ha":579,"o":"m 159 760 l 204 760 l 204 298 l 476 547 l 538 547 l 255 289 l 547 0 l 489 0 l 204 280 l 204 0 l 159 0 z"},"u":{"x_min":0,"x_max":634,"ha":634,"o":"m 107 217 l 107 547 l 152 547 l 152 220 q 152 113 187 70 q 221 26 287 26 q 365 26 420 73 q 476 121 476 238 l 476 547 l 521 547 l 521 0 l 476 0 l 476 103 q 452 53 413 26 q 355 -13 285 -13 q 204 -13 156 42 q 107 97 107 217 z"},"]":{"x_min":0,"x_max":390,"ha":390,"o":"m 280 760 l 280 -132 l 113 -132 l 113 -91 l 231 -91 l 231 709 l 113 709 l 113 760 z"},"U":{"x_min":0,"x_max":732,"ha":732,"o":"m 112 729 l 161 729 l 161 286 q 161 147 209 86 q 258 26 366 26 q 474 26 522 86 q 571 147 571 286 l 571 729 l 620 729 l 620 274 q 620 131 556 59 q 492 -14 366 -14 q 240 -14 176 59 q 112 131 112 274 z"},"o":{"x_min":0,"x_max":612,"ha":612,"o":"m 175 454 q 126 387 126 274 q 126 158 174 91 q 223 24 307 24 q 390 24 438 91 q 487 159 487 274 q 487 386 438 453 q 390 521 307 521 q 223 521 175 454 z m 306 560 q 411 560 471 482 q 532 403 532 273 q 532 139 471 62 q 411 -17 306 -17 q 201 -17 140 61 q 79 139 79 273 q 79 405 140 482 q 201 560 306 560 z"},"N":{"x_min":0,"x_max":748,"ha":748,"o":"m 121 729 l 193 729 l 547 62 l 547 729 l 596 729 l 596 0 l 526 0 l 171 671 l 171 0 l 121 0 z"},"+":{"x_min":0,"x_max":838,"ha":838,"o":"m 443 627 l 443 334 l 732 334 l 732 294 l 443 294 l 443 0 l 394 0 l 394 294 l 106 294 l 106 334 l 394 334 l 394 627 z"},"G":{"x_min":0,"x_max":775,"ha":775,"o":"m 620 62 l 620 317 l 434 317 l 434 357 l 668 357 l 668 39 q 616 13 554 0 q 491 -13 420 -14 q 262 -14 173 86 q 83 186 83 364 q 83 542 173 643 q 262 742 420 742 q 485 742 543 729 q 602 715 651 688 l 651 640 q 602 667 545 682 q 490 695 428 695 q 281 695 208 612 q 134 529 134 364 q 134 196 208 112 q 281 27 428 27 q 488 27 536 35 q 583 44 620 62 z"},"q":{"x_min":0,"x_max":635,"ha":635,"o":"m 184 83 q 240 25 302 25 q 363 25 420 83 q 476 140 476 273 q 476 406 420 463 q 363 521 302 521 q 240 521 184 463 q 127 406 127 273 q 127 140 184 83 z m 477 124 q 446 53 410 26 q 354 -14 306 -14 q 208 -14 144 65 q 80 144 80 273 q 80 402 144 481 q 208 560 306 560 q 354 560 410 520 q 446 493 477 422 l 477 547 l 521 547 l 521 -208 l 477 -208 z"},"d":{"x_min":0,"x_max":635,"ha":635,"o":"m 477 422 l 477 760 l 521 760 l 521 0 l 477 0 l 477 124 q 446 53 410 26 q 354 -14 306 -14 q 208 -14 144 65 q 80 144 80 273 q 80 402 144 481 q 208 560 306 560 q 354 560 410 520 q 446 493 477 422 z m 184 83 q 240 25 302 25 q 363 25 420 83 q 476 140 476 273 q 476 406 420 463 q 363 521 302 521 q 240 521 184 463 q 127 406 127 273 q 127 140 184 83 z"},"1":{"x_min":0,"x_max":636,"ha":636,"o":"m 148 40 l 310 40 l 310 684 l 110 604 l 110 649 l 309 729 l 358 729 l 358 40 l 520 40 l 520 0 l 148 0 z"},"5":{"x_min":0,"x_max":636,"ha":636,"o":"m 127 729 l 474 729 l 474 689 l 177 689 l 177 445 q 198 453 220 457 q 241 461 283 461 q 395 461 460 399 q 525 338 525 234 q 525 116 458 51 q 391 -14 269 -14 q 229 -14 186 -7 q 144 0 99 13 l 99 63 q 137 45 178 36 q 218 27 264 27 q 361 27 419 83 q 477 138 477 234 q 477 320 420 371 q 364 421 267 421 q 247 421 208 411 q 168 400 127 378 z"}}}
